<?xml version="1.0" encoding="UTF-8" standalone="no"?>
<svg
   xmlns:dc="http://purl.org/dc/elements/1.1/"
   xmlns:cc="http://creativecommons.org/ns#"
   xmlns:rdf="http://www.w3.org/1999/02/22-rdf-syntax-ns#"
   xmlns:svg="http://www.w3.org/2000/svg"
   xmlns="http://www.w3.org/2000/svg"
   xmlns:sodipodi="http://sodipodi.sourceforge.net/DTD/sodipodi-0.dtd"
   xmlns:inkscape="http://www.inkscape.org/namespaces/inkscape"
   width="297mm"
   height="210mm"
   viewBox="0 0 297 210"
   version="1.1"
   id="svg8"
   inkscape:version="1.0.1 (3bc2e813f5, 2020-09-07)"
   sodipodi:docname="Schaltplan.svg"
   inkscape:export-filename="D:\Projekte\Sonstige Projekte\DIY WordClock\Schaltplan.png"
   inkscape:export-xdpi="299.94077"
   inkscape:export-ydpi="299.94077">
  <defs
     id="defs2" />
  <sodipodi:namedview
     id="base"
     pagecolor="#ffffff"
     bordercolor="#666666"
     borderopacity="1.0"
     inkscape:pageopacity="0.0"
     inkscape:pageshadow="2"
     inkscape:zoom="0.70710678"
     inkscape:cx="401.09311"
     inkscape:cy="313.83126"
     inkscape:document-units="mm"
     inkscape:current-layer="layer1"
     inkscape:document-rotation="0"
     showgrid="false"
     inkscape:pagecheckerboard="false"
     inkscape:window-width="1920"
     inkscape:window-height="1017"
     inkscape:window-x="3832"
     inkscape:window-y="-8"
     inkscape:window-maximized="1"
     inkscape:snap-others="false"
     inkscape:snap-nodes="false" />
  <metadata
     id="metadata5">
    <rdf:RDF>
      <cc:Work
         rdf:about="">
        <dc:format>image/svg+xml</dc:format>
        <dc:type
           rdf:resource="http://purl.org/dc/dcmitype/StillImage" />
        <dc:title></dc:title>
      </cc:Work>
    </rdf:RDF>
  </metadata>
  <g
     inkscape:label="Ebene 1"
     inkscape:groupmode="layer"
     id="layer1">
    <g
       id="g1430"
       transform="matrix(0.48793431,0,0,0.48793431,123.82656,7.0211807)">
      <path
         fill="none"
         stroke="#000000"
         d="M 67,50 35,32 v 36 z m 36,0 H 4 M 67,32 V 68 M 46,25 64,7 m 7,7 -18,18"
         id="path1416" />
      <path
         d="M 57,9 67,4 62,14 m 2,2 10,-5 -5,10"
         id="path1418" />
    </g>
    <g
       id="g1436"
       transform="matrix(0.48793431,0,0,0.48793431,172.13206,7.0211807)">
      <path
         fill="none"
         stroke="#000000"
         d="M 67,50 35,32 v 36 z m 36,0 H 4 M 67,32 V 68 M 46,25 64,7 m 7,7 -18,18"
         id="path1432" />
      <path
         d="M 57,9 67,4 62,14 m 2,2 10,-5 -5,10"
         id="path1434" />
      <path
         fill="none"
         stroke="#000000"
         d="M 67,50 35,32 v 36 z m 36,0 H 4 M 67,32 V 68 M 46,25 64,7 m 7,7 -18,18"
         id="path1444" />
    </g>
    <g
       id="g1442"
       transform="matrix(0.48793431,0,0,0.48793431,123.82656,7.0211807)">
      <path
         fill="none"
         stroke="#000000"
         d="M 67,50 35,32 v 36 z m 36,0 H 4 M 67,32 V 68 M 46,25 64,7 m 7,7 -18,18"
         id="path1438" />
      <path
         d="M 57,9 67,4 62,14 m 2,2 10,-5 -5,10"
         id="path1440" />
    </g>
    <g
       id="g1452"
       transform="matrix(0.48793431,0,0,0.48793431,172.13206,38.248976)">
      <path
         fill="none"
         stroke="#000000"
         d="M 67,50 35,32 v 36 z m 36,0 H 4 M 67,32 V 68 M 46,25 64,7 m 7,7 -18,18"
         id="path1446" />
      <path
         d="M 57,9 67,4 62,14 m 2,2 10,-5 -5,10"
         id="path1448" />
      <path
         fill="none"
         stroke="#000000"
         d="M 67,50 35,32 v 36 z m 36,0 H 4 M 67,32 V 68 M 46,25 64,7 m 7,7 -18,18"
         id="path1450" />
    </g>
    <g
       id="g1458"
       transform="matrix(0.48793431,0,0,0.48793431,123.82656,38.248976)">
      <path
         fill="none"
         stroke="#000000"
         d="M 67,50 35,32 v 36 z m 36,0 H 4 M 67,32 V 68 M 46,25 64,7 m 7,7 -18,18"
         id="path1454" />
      <path
         d="M 57,9 67,4 62,14 m 2,2 10,-5 -5,10"
         id="path1456" />
    </g>
    <g
       id="g1464"
       transform="matrix(0.48793431,0,0,0.48793431,123.82656,79.862804)">
      <path
         fill="none"
         stroke="#000000"
         d="M 67,50 35,32 v 36 z m 36,0 H 4 M 67,32 V 68 M 46,25 64,7 m 7,7 -18,18"
         id="path1460" />
      <path
         d="M 57,9 67,4 62,14 m 2,2 10,-5 -5,10"
         id="path1462" />
    </g>
    <g
       id="g1472"
       transform="matrix(0.48793431,0,0,0.48793431,172.13206,79.862804)">
      <path
         fill="none"
         stroke="#000000"
         d="M 67,50 35,32 v 36 z m 36,0 H 4 M 67,32 V 68 M 46,25 64,7 m 7,7 -18,18"
         id="path1466" />
      <path
         d="M 57,9 67,4 62,14 m 2,2 10,-5 -5,10"
         id="path1468" />
      <path
         fill="none"
         stroke="#000000"
         d="M 67,50 35,32 v 36 z m 36,0 H 4 M 67,32 V 68 M 46,25 64,7 m 7,7 -18,18"
         id="path1470" />
    </g>
    <g
       id="g1478"
       transform="matrix(0.48793431,0,0,0.48793431,123.82656,79.862804)">
      <path
         fill="none"
         stroke="#000000"
         d="M 67,50 35,32 v 36 z m 36,0 H 4 M 67,32 V 68 M 46,25 64,7 m 7,7 -18,18"
         id="path1474" />
      <path
         d="M 57,9 67,4 62,14 m 2,2 10,-5 -5,10"
         id="path1476" />
    </g>
    <g
       id="g1486"
       transform="matrix(0.48793431,0,0,0.48793431,172.13206,111.0906)">
      <path
         fill="none"
         stroke="#000000"
         d="M 67,50 35,32 v 36 z m 36,0 H 4 M 67,32 V 68 M 46,25 64,7 m 7,7 -18,18"
         id="path1480" />
      <path
         d="M 57,9 67,4 62,14 m 2,2 10,-5 -5,10"
         id="path1482" />
      <path
         fill="none"
         stroke="#000000"
         d="M 67,50 35,32 v 36 z m 36,0 H 4 M 67,32 V 68 M 46,25 64,7 m 7,7 -18,18"
         id="path1484" />
    </g>
    <g
       id="g1492"
       transform="matrix(0.48793431,0,0,0.48793431,123.82656,111.0906)">
      <path
         fill="none"
         stroke="#000000"
         d="M 67,50 35,32 v 36 z m 36,0 H 4 M 67,32 V 68 M 46,25 64,7 m 7,7 -18,18"
         id="path1488" />
      <path
         d="M 57,9 67,4 62,14 m 2,2 10,-5 -5,10"
         id="path1490" />
    </g>
    <text
       xml:space="preserve"
       style="font-style:normal;font-weight:normal;font-size:4.00823px;line-height:1.25;font-family:sans-serif;fill:#000000;fill-opacity:1;stroke:none;stroke-width:0.100206"
       x="161.0517"
       y="8.8485899"
       id="text1496"><tspan
         sodipodi:role="line"
         id="tspan1494"
         x="161.0517"
         y="8.8485899"
         style="stroke-width:0.100206">22 LEDs je Reihe</tspan></text>
    <text
       xml:space="preserve"
       style="font-style:normal;font-weight:normal;font-size:4.00823px;line-height:1.25;font-family:sans-serif;fill:#000000;fill-opacity:1;stroke:none;stroke-width:0.100206"
       x="136.21338"
       y="154.12373"
       id="text1500"><tspan
         sodipodi:role="line"
         id="tspan1498"
         x="136.21338"
         y="154.12373"
         style="stroke-width:0.100206">10 Doppelreihen LEDs vom Typ WS2812B</tspan></text>
    <g
       id="g1516"
       transform="matrix(1.8441612,0,0,1.8441612,-95.97822,-46.972451)">
      <path
         style="fill:none;stroke:#000000;stroke-width:0.286905px;stroke-linecap:butt;stroke-linejoin:miter;stroke-opacity:1"
         d="m 120.11655,40 v 5"
         id="path1504" />
      <path
         style="fill:none;stroke:#000000;stroke-width:0.259516px;stroke-linecap:butt;stroke-linejoin:miter;stroke-opacity:1"
         d="m 120,40.129758 h -2"
         id="path1506" />
      <path
         style="fill:none;stroke:#000000;stroke-width:0.259516px;stroke-linecap:butt;stroke-linejoin:miter;stroke-opacity:1"
         d="m 120,42.499758 h -2"
         id="path1508" />
      <path
         style="fill:none;stroke:#000000;stroke-width:0.259516px;stroke-linecap:butt;stroke-linejoin:miter;stroke-opacity:1"
         d="m 120,44.869758 h -2"
         id="path1510" />
    </g>
    <text
       xml:space="preserve"
       style="font-style:normal;font-weight:normal;font-size:2.3774px;line-height:1.25;font-family:sans-serif;fill:#000000;fill-opacity:1;stroke:none;stroke-width:0.0594349"
       x="119.60262"
       y="34.866482"
       id="text1528"><tspan
         sodipodi:role="line"
         id="tspan1526"
         x="119.60262"
         y="34.866482"
         style="stroke-width:0.0594349">GND</tspan></text>
    <text
       xml:space="preserve"
       style="font-style:normal;font-weight:normal;font-size:2.3774px;line-height:1.25;font-family:sans-serif;fill:#000000;fill-opacity:1;stroke:none;stroke-width:0.0594349"
       x="121.55292"
       y="30.672632"
       id="text1532"><tspan
         sodipodi:role="line"
         id="tspan1530"
         x="121.55292"
         y="30.672632"
         style="stroke-width:0.0594349">5V</tspan></text>
    <text
       xml:space="preserve"
       style="font-style:normal;font-weight:normal;font-size:2.3774px;line-height:1.25;font-family:sans-serif;fill:#000000;fill-opacity:1;stroke:none;stroke-width:0.0594349"
       x="119.86139"
       y="26.370325"
       id="text1536"><tspan
         sodipodi:role="line"
         id="tspan1534"
         x="119.86139"
         y="26.370325"
         style="stroke-width:0.0594349">Data</tspan></text>
    <g
       id="g1546"
       transform="matrix(1.8441612,0,0,1.8441612,-95.719453,-15.737209)">
      <path
         style="fill:none;stroke:#000000;stroke-width:0.286905px;stroke-linecap:butt;stroke-linejoin:miter;stroke-opacity:1"
         d="m 120.11655,40 v 5"
         id="path1538" />
      <path
         style="fill:none;stroke:#000000;stroke-width:0.259516px;stroke-linecap:butt;stroke-linejoin:miter;stroke-opacity:1"
         d="m 120,40.129758 h -2"
         id="path1540" />
      <path
         style="fill:none;stroke:#000000;stroke-width:0.259516px;stroke-linecap:butt;stroke-linejoin:miter;stroke-opacity:1"
         d="m 120,42.499758 h -2"
         id="path1542" />
      <path
         style="fill:none;stroke:#000000;stroke-width:0.259516px;stroke-linecap:butt;stroke-linejoin:miter;stroke-opacity:1"
         d="m 120,44.869758 h -2"
         id="path1544" />
    </g>
    <g
       id="g1556"
       transform="matrix(1.8441612,0,0,1.8441612,-95.97777,25.878861)">
      <path
         style="fill:none;stroke:#000000;stroke-width:0.286905px;stroke-linecap:butt;stroke-linejoin:miter;stroke-opacity:1"
         d="m 120.11655,40 v 5"
         id="path1548" />
      <path
         style="fill:none;stroke:#000000;stroke-width:0.259516px;stroke-linecap:butt;stroke-linejoin:miter;stroke-opacity:1"
         d="m 120,40.129758 h -2"
         id="path1550" />
      <path
         style="fill:none;stroke:#000000;stroke-width:0.259516px;stroke-linecap:butt;stroke-linejoin:miter;stroke-opacity:1"
         d="m 120,42.499758 h -2"
         id="path1552" />
      <path
         style="fill:none;stroke:#000000;stroke-width:0.259516px;stroke-linecap:butt;stroke-linejoin:miter;stroke-opacity:1"
         d="m 120,44.869758 h -2"
         id="path1554" />
    </g>
    <g
       id="g1566"
       transform="matrix(1.8441612,0,0,1.8441612,-95.891963,57.108106)">
      <path
         style="fill:none;stroke:#000000;stroke-width:0.286905px;stroke-linecap:butt;stroke-linejoin:miter;stroke-opacity:1"
         d="m 120.11655,40 v 5"
         id="path1558" />
      <path
         style="fill:none;stroke:#000000;stroke-width:0.259516px;stroke-linecap:butt;stroke-linejoin:miter;stroke-opacity:1"
         d="m 120,40.129758 h -2"
         id="path1560" />
      <path
         style="fill:none;stroke:#000000;stroke-width:0.259516px;stroke-linecap:butt;stroke-linejoin:miter;stroke-opacity:1"
         d="m 120,42.499758 h -2"
         id="path1562" />
      <path
         style="fill:none;stroke:#000000;stroke-width:0.259516px;stroke-linecap:butt;stroke-linejoin:miter;stroke-opacity:1"
         d="m 120,44.869758 h -2"
         id="path1564" />
    </g>
    <g
       id="g1576"
       transform="matrix(-1.8441612,0,0,-1.8441612,444.14447,141.00463)">
      <path
         style="fill:none;stroke:#000000;stroke-width:0.286905px;stroke-linecap:butt;stroke-linejoin:miter;stroke-opacity:1"
         d="m 120.11655,40 v 5"
         id="path1568" />
      <path
         style="fill:none;stroke:#000000;stroke-width:0.259516px;stroke-linecap:butt;stroke-linejoin:miter;stroke-opacity:1"
         d="m 120,40.129758 h -2"
         id="path1570" />
      <path
         style="fill:none;stroke:#000000;stroke-width:0.259516px;stroke-linecap:butt;stroke-linejoin:miter;stroke-opacity:1"
         d="m 120,42.499758 h -2"
         id="path1572" />
      <path
         style="fill:none;stroke:#000000;stroke-width:0.259516px;stroke-linecap:butt;stroke-linejoin:miter;stroke-opacity:1"
         d="m 120,44.869758 h -2"
         id="path1574" />
    </g>
    <text
       xml:space="preserve"
       style="font-style:normal;font-weight:normal;font-size:2.3774px;line-height:1.25;font-family:sans-serif;fill:#000000;fill-opacity:1;stroke:none;stroke-width:0.0594349"
       x="222.63223"
       y="57.662811"
       id="text1580"><tspan
         sodipodi:role="line"
         id="tspan1578"
         x="222.63223"
         y="57.662811"
         style="stroke-width:0.0594349">Data</tspan></text>
    <path
       style="fill:none;stroke:#000000;stroke-width:0.48;stroke-linecap:butt;stroke-linejoin:miter;stroke-miterlimit:4;stroke-dasharray:none;stroke-opacity:1"
       d="m 226.5164,58.257942 h 7.32565 V 76.348827 H 110.19896"
       id="path1584" />
    <path
       style="fill:none;stroke:#000000;stroke-width:0.48;stroke-linecap:butt;stroke-linejoin:miter;stroke-miterlimit:4;stroke-dasharray:none;stroke-opacity:1"
       d="M 121.64219,99.887888 H 110.28877"
       id="path1586" />
    <path
       style="fill:none;stroke:#000000;stroke-width:0.48;stroke-linecap:butt;stroke-linejoin:miter;stroke-miterlimit:4;stroke-dasharray:none;stroke-opacity:1"
       d="M 121.76621,131.11699 H 110.41279"
       id="path1588" />
    <path
       style="fill:none;stroke:#000000;stroke-width:0.479981;stroke-linecap:butt;stroke-linejoin:miter;stroke-miterlimit:4;stroke-dasharray:none;stroke-opacity:1"
       d="M 110.44078,131.35522 V 76.371717"
       id="path1592" />
    <path
       style="fill:none;stroke:#000000;stroke-width:0.48;stroke-linecap:butt;stroke-linejoin:miter;stroke-miterlimit:4;stroke-dasharray:none;stroke-opacity:1"
       d="M 121.65766,27.033674 H 93.321696"
       id="path1594" />
    <path
       style="fill:none;stroke:#000000;stroke-width:0.48;stroke-linecap:butt;stroke-linejoin:miter;stroke-miterlimit:4;stroke-dasharray:none;stroke-opacity:1"
       d="M 121.8986,58.262776 H 93.305551"
       id="path1596" />
    <rect
       style="opacity:0.998;fill:#ffffff;stroke:#000000;stroke-width:0.48;stroke-miterlimit:4;stroke-dasharray:none;stroke-opacity:1"
       id="rect1598"
       width="67.759117"
       height="34.609982"
       x="44.573486"
       y="165.86063" />
    <text
       xml:space="preserve"
       style="font-style:normal;font-weight:normal;font-size:4.00823px;line-height:1.25;font-family:sans-serif;fill:#000000;fill-opacity:1;stroke:none;stroke-width:0.100206"
       x="57.389824"
       y="184.08034"
       id="text1602"><tspan
         sodipodi:role="line"
         id="tspan1600"
         x="57.389824"
         y="184.08034"
         style="stroke-width:0.100206">Raspberry Pi Zero W</tspan></text>
    <text
       xml:space="preserve"
       style="font-style:normal;font-weight:normal;font-size:4.00823px;line-height:1.25;font-family:sans-serif;fill:#000000;fill-opacity:1;stroke:none;stroke-width:0.100206"
       x="95.209076"
       y="162.35635"
       id="text1606"><tspan
         sodipodi:role="line"
         id="tspan1604"
         x="95.209076"
         y="162.35635"
         style="stroke-width:0.100206">GPIO 18 (PWM)</tspan></text>
    <path
       style="fill:none;stroke:#000000;stroke-width:0.48;stroke-linecap:butt;stroke-linejoin:miter;stroke-opacity:1;stroke-miterlimit:4;stroke-dasharray:none"
       d="M 93.554462,165.82415 V 26.813869"
       id="path1608" />
    <path
       style="fill:none;stroke:#000000;stroke-width:0.48;stroke-linecap:butt;stroke-linejoin:miter;stroke-opacity:1;stroke-miterlimit:4;stroke-dasharray:none"
       d="M 16.484806,197.16851 V 180.30074"
       id="path1612" />
    <path
       style="fill:none;stroke:#000000;stroke-width:0.48;stroke-linecap:butt;stroke-linejoin:miter;stroke-opacity:1;stroke-miterlimit:4;stroke-dasharray:none"
       d="m 23.222766,185.19109 v 7.2099"
       id="path1614" />
    <text
       xml:space="preserve"
       style="font-style:normal;font-weight:normal;font-size:4.00823px;line-height:1.25;font-family:sans-serif;fill:#000000;fill-opacity:1;stroke:none;stroke-width:0.100206"
       x="17.197485"
       y="201.53059"
       id="text1618"><tspan
         sodipodi:role="line"
         id="tspan1616"
         x="17.197485"
         y="201.53059"
         style="stroke-width:0.100206">5V</tspan></text>
    <path
       style="fill:none;stroke:#000000;stroke-width:0.48;stroke-linecap:butt;stroke-linejoin:miter;stroke-miterlimit:4;stroke-dasharray:none;stroke-opacity:1"
       d="M 121.64405,35.777029 H 32.86266 V 188.91931 h -9.73214"
       id="path1622" />
    <path
       style="fill:none;stroke:#000000;stroke-width:0.48;stroke-linecap:butt;stroke-linejoin:miter;stroke-miterlimit:4;stroke-dasharray:none;stroke-opacity:1"
       d="M 121.89411,67.012821 H 32.618164"
       id="path1624" />
    <path
       style="fill:none;stroke:#000000;stroke-width:0.48;stroke-linecap:butt;stroke-linejoin:miter;stroke-miterlimit:4;stroke-dasharray:none;stroke-opacity:1"
       d="M 121.91065,108.62682 H 32.634701"
       id="path1626" />
    <path
       style="fill:none;stroke:#000000;stroke-width:0.48;stroke-linecap:butt;stroke-linejoin:miter;stroke-miterlimit:4;stroke-dasharray:none;stroke-opacity:1"
       d="M 121.91065,139.85601 H 32.634701"
       id="path1628" />
    <path
       style="fill:none;stroke:#000000;stroke-width:0.48;stroke-linecap:butt;stroke-linejoin:miter;stroke-miterlimit:4;stroke-dasharray:none;stroke-opacity:1"
       d="M 121.63805,31.402734 H 7.4207355 V 188.83808"
       id="path1630" />
    <path
       style="fill:none;stroke:#000000;stroke-width:0.48;stroke-linecap:butt;stroke-linejoin:miter;stroke-miterlimit:4;stroke-dasharray:none;stroke-opacity:1"
       d="M 7.1946455,188.59306 H 16.642622"
       id="path1632" />
    <path
       style="fill:none;stroke:#000000;stroke-width:0.48;stroke-linecap:butt;stroke-linejoin:miter;stroke-miterlimit:4;stroke-dasharray:none;stroke-opacity:1"
       d="M 121.8985,62.640103 H 7.2493951"
       id="path1634" />
    <path
       style="fill:none;stroke:#000000;stroke-width:0.48;stroke-linecap:butt;stroke-linejoin:miter;stroke-miterlimit:4;stroke-dasharray:none;stroke-opacity:1"
       d="M 121.8985,104.25564 H 7.2493951"
       id="path1636" />
    <path
       style="fill:none;stroke:#000000;stroke-width:0.48;stroke-linecap:butt;stroke-linejoin:miter;stroke-miterlimit:4;stroke-dasharray:none;stroke-opacity:1"
       d="M 121.8985,135.48445 H 7.3816867"
       id="path1638" />
    <path
       style="fill:none;stroke:#000000;stroke-width:0.48;stroke-linecap:butt;stroke-linejoin:miter;stroke-opacity:1;stroke-miterlimit:4;stroke-dasharray:none"
       d="M 7.2029137,168.80075 H 44.667418"
       id="path1640" />
    <path
       style="fill:none;stroke:#000000;stroke-width:0.48;stroke-linecap:butt;stroke-linejoin:miter;stroke-opacity:1;stroke-miterlimit:4;stroke-dasharray:none"
       d="M 32.740518,171.98126 H 44.714191"
       id="path1642" />
    <text
       xml:space="preserve"
       style="font-style:normal;font-weight:normal;font-size:4.00823px;line-height:1.25;font-family:sans-serif;fill:#000000;fill-opacity:1;stroke:none;stroke-width:0.100206"
       x="45.351284"
       y="171.51263"
       id="text1646"><tspan
         sodipodi:role="line"
         id="tspan1644"
         x="45.351284"
         y="171.51263"
         style="stroke-width:0.100206">Micro USB Power</tspan></text>
    <g
       id="g1656"
       transform="matrix(-1.8441612,0,0,-1.8441612,444.15617,213.86106)">
      <path
         style="fill:none;stroke:#000000;stroke-width:0.286905px;stroke-linecap:butt;stroke-linejoin:miter;stroke-opacity:1"
         d="m 120.11655,40 v 5"
         id="path1648" />
      <path
         style="fill:none;stroke:#000000;stroke-width:0.259516px;stroke-linecap:butt;stroke-linejoin:miter;stroke-opacity:1"
         d="m 120,40.129758 h -2"
         id="path1650" />
      <path
         style="fill:none;stroke:#000000;stroke-width:0.259516px;stroke-linecap:butt;stroke-linejoin:miter;stroke-opacity:1"
         d="m 120,42.499758 h -2"
         id="path1652" />
      <path
         style="fill:none;stroke:#000000;stroke-width:0.259516px;stroke-linecap:butt;stroke-linejoin:miter;stroke-opacity:1"
         d="m 120,44.869758 h -2"
         id="path1654" />
    </g>
    <text
       xml:space="preserve"
       style="font-style:normal;font-weight:normal;font-size:2.3774px;line-height:1.25;font-family:sans-serif;fill:#000000;fill-opacity:1;stroke:none;stroke-width:0.0594349"
       x="222.65561"
       y="130.48708"
       id="text1660"><tspan
         sodipodi:role="line"
         id="tspan1658"
         x="222.65561"
         y="130.48708"
         style="stroke-width:0.0594349">Data</tspan></text>
    <path
       style="fill:none;stroke:#000000;stroke-width:0.48;stroke-linecap:butt;stroke-linejoin:miter;stroke-opacity:1;stroke-miterlimit:4;stroke-dasharray:none"
       d="m 226.5293,131.11408 h 6.209 v 12.19584"
       id="path1662" />
    <text
       xml:space="preserve"
       style="font-style:normal;font-weight:normal;font-size:2.3774px;line-height:1.25;font-family:sans-serif;fill:#000000;fill-opacity:1;stroke:none;stroke-width:0.0594349"
       x="231.49554"
       y="144.93967"
       id="text1666"><tspan
         sodipodi:role="line"
         id="tspan1664"
         x="231.49554"
         y="144.93967"
         style="stroke-width:0.0594349">...</tspan></text>
  </g>
</svg>
